<?xml version="1.0" encoding="utf-8"?>
<!-- Svg Vector Icons : http://www.onlinewebfonts.com/icon -->
<!DOCTYPE svg PUBLIC "-//W3C//DTD SVG 1.1//EN" "http://www.w3.org/Graphics/SVG/1.1/DTD/svg11.dtd">
<svg version="1.1" xmlns="http://www.w3.org/2000/svg" xmlns:xlink="http://www.w3.org/1999/xlink" x="0px" y="0px" viewBox="0 0 1000 1000" enable-background="new 0 0 1000 1000" xml:space="preserve">
<metadata> Svg Vector Icons : http://www.onlinewebfonts.com/icon </metadata>
<g><path d="M823.4,918.1c-52.2,0-94.7-42.5-94.7-94.7c0-17.9,5-34.7,13.7-49h-341c8.7,14.3,13.7,31.1,13.7,49c0,52.2-42.5,94.7-94.7,94.7c-52.2,0-94.7-42.5-94.7-94.7c0-23.4,8.5-44.9,22.7-61.4c-13.8-10.8-22.7-27.5-22.7-46.4c0-17.6,12.5-42.1,28.8-72.2c1.5-2.8,3-5.5,4.2-7.9l-93.8-436H68.8c-32.4,0-58.8-26.4-58.8-58.8c0-32.4,26.4-58.8,58.8-58.8h143.7c48.3,0,58.8,43.9,63.6,71.9h655.1c32.4,0,58.8,26.4,58.8,58.8V500c0,29.8-22.4,55-52.1,58.6l-561,65.5c1.3,6.2,2.2,12.8,2.2,19.6c0,4.6-0.6,9-1.5,13.1h481.7c32.4,0,58.8,26.4,58.8,58.8c0,18.8-8.9,35.6-22.7,46.4c14.1,16.6,22.7,38,22.7,61.4C918.1,875.6,875.6,918.1,823.4,918.1z M823.4,774.4c-27,0-49,22-49,49c0,27,22,49,49,49c27,0,49-22,49-49C872.4,796.4,850.4,774.4,823.4,774.4z M320.3,774.4c-27,0-49,22-49,49c0,27,22,49,49,49c27,0,49-22,49-49C369.3,796.4,347.4,774.4,320.3,774.4z M823.4,728.7h35.9c7,0,13.1-6.1,13.1-13.1c0-7.1-6-13.1-13.1-13.1H305.8l20.1-40c3.7-6.9,7.5-14,7.5-18.8c0-5.8-1.9-13.6-3.7-21.1c-1.2-4.8-2.3-9.6-3.2-14.2l-4.4-24l610.4-71.3c6.7-0.8,11.8-6.5,11.8-13.2V212.5c0-7.1-6-13.1-13.1-13.1H238.3l-3.8-18.2c-0.9-4.4-1.7-9.2-2.5-14.1c-5.5-33.5-9.9-39.5-19.5-39.5H68.8c-7.1,0-13.1,6-13.1,13.1c0,7,6.1,13.1,13.1,13.1h133l104.9,487.8l-3.4,7.1c-2,4.1-5.1,9.9-8.7,16.5c-6.8,12.5-22.6,41.8-23.3,50.7c0,6.7,6.1,12.9,13.1,12.9H823.4L823.4,728.7z"/></g>
</svg>